<?xml version="1.0" encoding="iso-8859-1"?>
<!-- Generator: Adobe Illustrator 19.0.0, SVG Export Plug-In . SVG Version: 6.00 Build 0)  -->
<svg class="svg_home" version="1.1" id="Layer_1" xmlns="http://www.w3.org/2000/svg" xmlns:xlink="http://www.w3.org/1999/xlink" x="0px" y="0px"
     viewBox="0 0 512 512" style="enable-background:new 0 0 512 512;" xml:space="preserve">
<path fill="#fff"
        d="M 505.59,250.00
									           C 514.87,239.80 513.97,224.15 503.58,215.07
									             503.58,215.07 274.77,14.85 274.77,14.85
									             264.38,5.77 247.73,5.96 237.56,15.28
									             237.56,15.28 7.96,225.74 7.96,225.74
									             -2.20,235.07 -2.70,250.69 6.86,260.63
									             6.86,260.63 12.61,266.62 12.61,266.62
									             22.16,276.56 37.60,277.75 47.07,269.26
									             47.07,269.26 64.23,253.90 64.23,253.90
									             64.23,253.90 64.23,478.86 64.23,478.86
									             64.23,492.66 75.41,503.84 89.21,503.84
									             89.21,503.84 178.70,503.84 178.70,503.84
									             192.50,503.84 203.68,492.66 203.68,478.86
									             203.68,478.86 203.68,321.48 203.68,321.48
									             203.68,321.48 317.84,321.48 317.84,321.48
									             317.84,321.48 317.84,478.86 317.84,478.86
									             317.64,492.65 327.51,503.83 341.30,503.83
									             341.30,503.83 436.14,503.83 436.14,503.83
									             449.94,503.83 461.12,492.65 461.12,478.85
									             461.12,478.85 461.12,257.06 461.12,257.06
									             461.12,257.06 465.86,261.22 471.71,266.36
									             477.54,271.48 489.80,267.37 499.08,257.15
									             499.08,257.15 505.59,250.00 505.59,250.00 Z" />
</svg>
