
<svg width="263" height="192" viewBox="0 0 263 192" fill="none" xmlns="http://www.w3.org/2000/svg">
    <g opacity="0.4">
        <path d="M-1.61179 177.966H0.447899V179.769H1.73521V177.966H3.79492V176.422H1.73521V174.619H0.447899V176.422H-1.61179V177.966Z" fill="#CADFFD"/>
        <path d="M10.2315 166.123H12.2912V167.925H13.5785V166.123H15.6382V164.578H13.5785V162.776H12.2912V164.578H10.2315V166.123Z" fill="#CADFFD"/>
        <path d="M-1.61179 166.123H0.447899V167.925H1.73521V166.123H3.79492V164.578H1.73521V162.776H0.447899V164.578H-1.61179V166.123Z" fill="#CADFFD"/>
        <path d="M22.0747 154.28H24.1344V156.339H25.4218V154.28H27.4814V152.992H25.4218V150.933H24.1344V152.992H22.0747V154.28Z" fill="#CADFFD"/>
        <path d="M11.2935 154.94H13.3532V157H14.6405V154.94H16.7002V153.653H14.6405V151.593H13.3532V153.653H11.2935V154.94Z" fill="#CADFFD"/>
        <path d="M-1.61179 154.28H0.447899V156.339H1.73521V154.28H3.79492V152.992H1.73521V150.933H0.447899V152.992H-1.61179V154.28Z" fill="#CADFFD"/>
        <path d="M33.9176 142.436H35.7199V144.496H37.2647V142.436H39.0669V141.149H37.2647V139.089H35.7199V141.149H33.9176V142.436Z" fill="#CADFFD"/>
        <path d="M22.0742 142.436H24.134V144.496H25.4213V142.436H27.481V141.149H25.4213V139.089H24.134V141.149H22.0742V142.436Z" fill="#CADFFD"/>
        <path d="M10.231 142.436H12.2907V144.496H13.578V142.436H15.6377V141.149H13.578V139.089H12.2907V141.149H10.231V142.436Z" fill="#CADFFD"/>
        <path d="M-1.61228 142.436H0.447411V144.496H1.73472V142.436H3.79443V141.149H1.73472V139.089H0.447411V141.149H-1.61228V142.436Z" fill="#CADFFD"/>
        <path d="M45.5039 130.851H47.5636V132.653H48.851V130.851H50.9106V129.306H48.851V127.504H47.5636V129.306H45.5039V130.851Z" fill="#CADFFD"/>
        <path d="M33.9181 130.851H35.7204V132.653H37.2652V130.851H39.0674V129.306H37.2652V127.504H35.7204V129.306H33.9181V130.851Z" fill="#CADFFD"/>
        <path d="M22.0747 130.851H24.1344V132.653H25.4218V130.851H27.4814V129.306H25.4218V127.504H24.1344V129.306H22.0747V130.851Z" fill="#CADFFD"/>
        <path d="M10.2315 130.851H12.2912V132.653H13.5785V130.851H15.6382V129.306H13.5785V127.504H12.2912V129.306H10.2315V130.851Z" fill="#CADFFD"/>
        <path d="M-1.61179 130.851H0.447899V132.653H1.73521V130.851H3.79492V129.306H1.73521V127.504H0.447899V129.306H-1.61179V130.851Z" fill="#CADFFD"/>
        <path d="M57.3472 119.007H59.4069V121.067H60.6942V119.007H62.7539V117.72H60.6942V115.66H59.4069V117.72H57.3472V119.007Z" fill="#CADFFD"/>
        <path d="M45.5039 119.007H47.5636V121.067H48.851V119.007H50.9106V117.72H48.851V115.66H47.5636V117.72H45.5039V119.007Z" fill="#CADFFD"/>
        <path d="M33.9181 119.007H35.7204V121.067H37.2652V119.007H39.0674V117.72H37.2652V115.66H35.7204V117.72H33.9181V119.007Z" fill="#CADFFD"/>
        <path d="M22.0747 119.007H24.1344V121.067H25.4218V119.007H27.4814V117.72H25.4218V115.66H24.1344V117.72H22.0747V119.007Z" fill="#CADFFD"/>
        <path d="M10.2315 119.007H12.2912V121.067H13.5785V119.007H15.6382V117.72H13.5785V115.66H12.2912V117.72H10.2315V119.007Z" fill="#CADFFD"/>
        <path d="M-1.61179 119.007H0.447899V121.067H1.73521V119.007H3.79492V117.72H1.73521V115.66H0.447899V117.72H-1.61179V119.007Z" fill="#CADFFD"/>
        <path d="M69.1901 107.164H70.9923V109.224H72.5371V107.164H74.3394V105.877H72.5371V103.817H70.9923V105.877H69.1901V107.164Z" fill="#CADFFD"/>
        <path d="M57.3467 107.164H59.4064V109.224H60.6937V107.164H62.7534V105.877H60.6937V103.817H59.4064V105.877H57.3467V107.164Z" fill="#CADFFD"/>
        <path d="M45.5034 107.164H47.5632V109.224H48.8505V107.164H50.9102V105.877H48.8505V103.817H47.5632V105.877H45.5034V107.164Z" fill="#CADFFD"/>
        <path d="M33.9176 107.164H35.7199V109.224H37.2647V107.164H39.0669V105.877H37.2647V103.817H35.7199V105.877H33.9176V107.164Z" fill="#CADFFD"/>
        <path d="M22.0742 107.164H24.134V109.224H25.4213V107.164H27.481V105.877H25.4213V103.817H24.134V105.877H22.0742V107.164Z" fill="#CADFFD"/>
        <path d="M10.231 107.164H12.2907V109.224H13.578V107.164H15.6377V105.877H13.578V103.817H12.2907V105.877H10.231V107.164Z" fill="#CADFFD"/>
        <path d="M-1.61228 107.164H0.447411V109.224H1.73472V107.164H3.79443V105.877H1.73472V103.817H0.447411V105.877H-1.61228V107.164Z" fill="#CADFFD"/>
        <path d="M80.7764 95.3212H82.8361V97.3809H84.1234V95.3212H86.1831V94.0338H84.1234V91.9741H82.8361V94.0338H80.7764V95.3212Z" fill="#CADFFD"/>
        <path d="M69.1906 95.3212H70.9928V97.3809H72.5376V95.3212H74.3398V94.0338H72.5376V91.9741H70.9928V94.0338H69.1906V95.3212Z" fill="#CADFFD"/>
        <path d="M57.3472 95.3212H59.4069V97.3809H60.6942V95.3212H62.7539V94.0338H60.6942V91.9741H59.4069V94.0338H57.3472V95.3212Z" fill="#CADFFD"/>
        <path d="M45.5039 95.3212H47.5636V97.3809H48.851V95.3212H50.9106V94.0338H48.851V91.9741H47.5636V94.0338H45.5039V95.3212Z" fill="#CADFFD"/>
        <path d="M33.9181 95.3212H35.7204V97.3809H37.2652V95.3212H39.0674V94.0338H37.2652V91.9741H35.7204V94.0338H33.9181V95.3212Z" fill="#CADFFD"/>
        <path d="M22.0747 95.3212H24.1344V97.3809H25.4218V95.3212H27.4814V94.0338H25.4218V91.9741H24.1344V94.0338H22.0747V95.3212Z" fill="#CADFFD"/>
        <path d="M10.2315 95.3212H12.2912V97.3809H13.5785V95.3212H15.6382V94.0338H13.5785V91.9741H12.2912V94.0338H10.2315V95.3212Z" fill="#CADFFD"/>
        <path d="M-1.61179 95.3212H0.447899V97.3809H1.73521V95.3212H3.79492V94.0338H1.73521V91.9741H0.447899V94.0338H-1.61179V95.3212Z" fill="#CADFFD"/>
        <path d="M92.6197 83.7349H94.6793V85.5371H95.9667V83.7349H98.0264V82.1901H95.9667V80.3879H94.6793V82.1901H92.6197V83.7349Z" fill="#CADFFD"/>
        <path d="M80.7764 83.7349H82.8361V85.5371H84.1234V83.7349H86.1831V82.1901H84.1234V80.3879H82.8361V82.1901H80.7764V83.7349Z" fill="#CADFFD"/>
        <path d="M69.1906 83.7349H70.9928V85.5371H72.5376V83.7349H74.3398V82.1901H72.5376V80.3879H70.9928V82.1901H69.1906V83.7349Z" fill="#CADFFD"/>
        <path d="M57.3472 83.7349H59.4069V85.5371H60.6942V83.7349H62.7539V82.1901H60.6942V80.3879H59.4069V82.1901H57.3472V83.7349Z" fill="#CADFFD"/>
        <path d="M45.5039 83.7349H47.5636V85.5371H48.851V83.7349H50.9106V82.1901H48.851V80.3879H47.5636V82.1901H45.5039V83.7349Z" fill="#CADFFD"/>
        <path d="M33.9181 83.7349H35.7204V85.5371H37.2652V83.7349H39.0674V82.1901H37.2652V80.3879H35.7204V82.1901H33.9181V83.7349Z" fill="#CADFFD"/>
        <path d="M22.0747 83.7349H24.1344V85.5371H25.4218V83.7349H27.4814V82.1901H25.4218V80.3879H24.1344V82.1901H22.0747V83.7349Z" fill="#CADFFD"/>
        <path d="M10.2315 83.7349H12.2912V85.5371H13.5785V83.7349H15.6382V82.1901H13.5785V80.3879H12.2912V82.1901H10.2315V83.7349Z" fill="#CADFFD"/>
        <path d="M-1.61179 83.7349H0.447899V85.5371H1.73521V83.7349H3.79492V82.1901H1.73521V80.3879H0.447899V82.1901H-1.61179V83.7349Z" fill="#CADFFD"/>
        <path d="M104.462 71.892H106.522V73.9517H107.809V71.892H109.869V70.6046H107.809V68.5449H106.522V70.6046H104.462V71.892Z" fill="#CADFFD"/>
        <path d="M92.6192 71.892H94.6789V73.9517H95.9662V71.892H98.0259V70.6046H95.9662V68.5449H94.6789V70.6046H92.6192V71.892Z" fill="#CADFFD"/>
        <path d="M80.7759 71.892H82.8356V73.9517H84.1229V71.892H86.1826V70.6046H84.1229V68.5449H82.8356V70.6046H80.7759V71.892Z" fill="#CADFFD"/>
        <path d="M69.1901 71.892H70.9923V73.9517H72.5371V71.892H74.3394V70.6046H72.5371V68.5449H70.9923V70.6046H69.1901V71.892Z" fill="#CADFFD"/>
        <path d="M57.3467 71.892H59.4064V73.9517H60.6937V71.892H62.7534V70.6046H60.6937V68.5449H59.4064V70.6046H57.3467V71.892Z" fill="#CADFFD"/>
        <path d="M45.5034 71.892H47.5632V73.9517H48.8505V71.892H50.9102V70.6046H48.8505V68.5449H47.5632V70.6046H45.5034V71.892Z" fill="#CADFFD"/>
        <path d="M33.9176 71.892H35.7199V73.9517H37.2647V71.892H39.0669V70.6046H37.2647V68.5449H35.7199V70.6046H33.9176V71.892Z" fill="#CADFFD"/>
        <path d="M22.0742 71.892H24.134V73.9517H25.4213V71.892H27.481V70.6046H25.4213V68.5449H24.134V70.6046H22.0742V71.892Z" fill="#CADFFD"/>
        <path d="M10.231 71.892H12.2907V73.9517H13.578V71.892H15.6377V70.6046H13.578V68.5449H12.2907V70.6046H10.231V71.892Z" fill="#CADFFD"/>
        <path d="M-1.61228 71.892H0.447411V73.9517H1.73472V71.892H3.79443V70.6046H1.73472V68.5449H0.447411V70.6046H-1.61228V71.892Z" fill="#CADFFD"/>
        <path d="M116.306 60.0487H118.108V62.1084H119.653V60.0487H121.455V58.7614H119.653V56.7017H118.108V58.7614H116.306V60.0487Z" fill="#CADFFD"/>
        <path d="M104.462 60.0487H106.522V62.1084H107.809V60.0487H109.869V58.7614H107.809V56.7017H106.522V58.7614H104.462V60.0487Z" fill="#CADFFD"/>
        <path d="M92.6192 60.0487H94.6789V62.1084H95.9662V60.0487H98.0259V58.7614H95.9662V56.7017H94.6789V58.7614H92.6192V60.0487Z" fill="#CADFFD"/>
        <path d="M80.7759 60.0487H82.8356V62.1084H84.1229V60.0487H86.1826V58.7614H84.1229V56.7017H82.8356V58.7614H80.7759V60.0487Z" fill="#CADFFD"/>
        <path d="M69.1901 60.0487H70.9923V62.1084H72.5371V60.0487H74.3394V58.7614H72.5371V56.7017H70.9923V58.7614H69.1901V60.0487Z" fill="#CADFFD"/>
        <path d="M57.3467 60.0487H59.4064V62.1084H60.6937V60.0487H62.7534V58.7614H60.6937V56.7017H59.4064V58.7614H57.3467V60.0487Z" fill="#CADFFD"/>
        <path d="M45.5034 60.0487H47.5632V62.1084H48.8505V60.0487H50.9102V58.7614H48.8505V56.7017H47.5632V58.7614H45.5034V60.0487Z" fill="#CADFFD"/>
        <path d="M33.9176 60.0487H35.7199V62.1084H37.2647V60.0487H39.0669V58.7614H37.2647V56.7017H35.7199V58.7614H33.9176V60.0487Z" fill="#CADFFD"/>
        <path d="M22.0747 60.0487H24.1344V62.1084H25.4218V60.0487H27.4814V58.7614H25.4218V56.7017H24.1344V58.7614H22.0747V60.0487Z" fill="#CADFFD"/>
        <path d="M10.2315 60.0487H12.2912V62.1084H13.5785V60.0487H15.6382V58.7614H13.5785V56.7017H12.2912V58.7614H10.2315V60.0487Z" fill="#CADFFD"/>
        <path d="M-1.61228 60.0487H0.447411V62.1084H1.73472V60.0487H3.79443V58.7614H1.73472V56.7017H0.447411V58.7614H-1.61228V60.0487Z" fill="#CADFFD"/>
        <path d="M127.892 48.4624H129.951V50.2646H131.239V48.4624H133.298V46.9176H131.239V45.1154H129.951V46.9176H127.892V48.4624Z" fill="#CADFFD"/>
        <path d="M116.306 48.4624H118.108V50.2646H119.653V48.4624H121.455V46.9176H119.653V45.1154H118.108V46.9176H116.306V48.4624Z" fill="#CADFFD"/>
        <path d="M104.462 48.4624H106.522V50.2646H107.809V48.4624H109.869V46.9176H107.809V45.1154H106.522V46.9176H104.462V48.4624Z" fill="#CADFFD"/>
        <path d="M92.6192 48.4624H94.6789V50.2646H95.9662V48.4624H98.0259V46.9176H95.9662V45.1154H94.6789V46.9176H92.6192V48.4624Z" fill="#CADFFD"/>
        <path d="M80.7759 48.4624H82.8356V50.2646H84.1229V48.4624H86.1826V46.9176H84.1229V45.1154H82.8356V46.9176H80.7759V48.4624Z" fill="#CADFFD"/>
        <path d="M69.1901 48.4624H70.9923V50.2646H72.5371V48.4624H74.3394V46.9176H72.5371V45.1154H70.9923V46.9176H69.1901V48.4624Z" fill="#CADFFD"/>
        <path d="M57.3467 48.4624H59.4064V50.2646H60.6937V48.4624H62.7534V46.9176H60.6937V45.1154H59.4064V46.9176H57.3467V48.4624Z" fill="#CADFFD"/>
        <path d="M45.5034 48.4624H47.5632V50.2646H48.8505V48.4624H50.9102V46.9176H48.8505V45.1154H47.5632V46.9176H45.5034V48.4624Z" fill="#CADFFD"/>
        <path d="M33.9176 48.4624H35.7199V50.2646H37.2647V48.4624H39.0669V46.9176H37.2647V45.1154H35.7199V46.9176H33.9176V48.4624Z" fill="#CADFFD"/>
        <path d="M22.0747 48.4624H24.1344V50.2646H25.4218V48.4624H27.4814V46.9176H25.4218V45.1154H24.1344V46.9176H22.0747V48.4624Z" fill="#CADFFD"/>
        <path d="M10.231 48.4624H12.2907V50.2646H13.578V48.4624H15.6377V46.9176H13.578V45.1154H12.2907V46.9176H10.231V48.4624Z" fill="#CADFFD"/>
        <path d="M139.735 36.6195H141.795V38.6792H143.082V36.6195H145.142V35.3322H143.082V33.2725H141.795V35.3322H139.735V36.6195Z" fill="#CADFFD"/>
        <path d="M127.892 36.6195H129.951V38.6792H131.239V36.6195H133.298V35.3322H131.239V33.2725H129.951V35.3322H127.892V36.6195Z" fill="#CADFFD"/>
        <path d="M116.306 36.6195H118.108V38.6792H119.653V36.6195H121.455V35.3322H119.653V33.2725H118.108V35.3322H116.306V36.6195Z" fill="#CADFFD"/>
        <path d="M104.462 36.6195H106.522V38.6792H107.809V36.6195H109.869V35.3322H107.809V33.2725H106.522V35.3322H104.462V36.6195Z" fill="#CADFFD"/>
        <path d="M92.6192 36.6195H94.6789V38.6792H95.9662V36.6195H98.0259V35.3322H95.9662V33.2725H94.6789V35.3322H92.6192V36.6195Z" fill="#CADFFD"/>
        <path d="M80.7759 36.6195H82.8356V38.6792H84.1229V36.6195H86.1826V35.3322H84.1229V33.2725H82.8356V35.3322H80.7759V36.6195Z" fill="#CADFFD"/>
        <path d="M69.1901 36.6195H70.9923V38.6792H72.5371V36.6195H74.3394V35.3322H72.5371V33.2725H70.9923V35.3322H69.1901V36.6195Z" fill="#CADFFD"/>
        <path d="M57.3467 36.6195H59.4064V38.6792H60.6937V36.6195H62.7534V35.3322H60.6937V33.2725H59.4064V35.3322H57.3467V36.6195Z" fill="#CADFFD"/>
        <path d="M45.5034 36.6195H47.5632V38.6792H48.8505V36.6195H50.9102V35.3322H48.8505V33.2725H47.5632V35.3322H45.5034V36.6195Z" fill="#CADFFD"/>
        <path d="M33.9176 36.6195H35.7199V38.6792H37.2647V36.6195H39.0669V35.3322H37.2647V33.2725H35.7199V35.3322H33.9176V36.6195Z" fill="#CADFFD"/>
        <path d="M22.0742 36.6195H24.134V38.6792H25.4213V36.6195H27.481V35.3322H25.4213V33.2725H24.134V35.3322H22.0742V36.6195Z" fill="#CADFFD"/>
        <path d="M151.578 24.7762H153.381V26.8359H154.925V24.7762H156.728V23.4889H154.925V21.4292H153.381V23.4889H151.578V24.7762Z" fill="#CADFFD"/>
        <path d="M139.735 24.7762H141.795V26.8359H143.082V24.7762H145.142V23.4889H143.082V21.4292H141.795V23.4889H139.735V24.7762Z" fill="#CADFFD"/>
        <path d="M127.892 24.7762H129.951V26.8359H131.239V24.7762H133.298V23.4889H131.239V21.4292H129.951V23.4889H127.892V24.7762Z" fill="#CADFFD"/>
        <path d="M116.306 24.7762H118.108V26.8359H119.653V24.7762H121.455V23.4889H119.653V21.4292H118.108V23.4889H116.306V24.7762Z" fill="#CADFFD"/>
        <path d="M104.462 24.7762H106.522V26.8359H107.809V24.7762H109.869V23.4889H107.809V21.4292H106.522V23.4889H104.462V24.7762Z" fill="#CADFFD"/>
        <path d="M92.6192 24.7762H94.6789V26.8359H95.9662V24.7762H98.0259V23.4889H95.9662V21.4292H94.6789V23.4889H92.6192V24.7762Z" fill="#CADFFD"/>
        <path d="M80.7759 24.7762H82.8356V26.8359H84.1229V24.7762H86.1826V23.4889H84.1229V21.4292H82.8356V23.4889H80.7759V24.7762Z" fill="#CADFFD"/>
        <path d="M69.1901 24.7762H70.9923V26.8359H72.5371V24.7762H74.3394V23.4889H72.5371V21.4292H70.9923V23.4889H69.1901V24.7762Z" fill="#CADFFD"/>
        <path d="M57.3467 24.7762H59.4064V26.8359H60.6937V24.7762H62.7534V23.4889H60.6937V21.4292H59.4064V23.4889H57.3467V24.7762Z" fill="#CADFFD"/>
        <path d="M45.5039 24.7762H47.5636V26.8359H48.851V24.7762H50.9106V23.4889H48.851V21.4292H47.5636V23.4889H45.5039V24.7762Z" fill="#CADFFD"/>
        <path d="M33.9176 24.7762H35.7199V26.8359H37.2647V24.7762H39.0669V23.4889H37.2647V21.4292H35.7199V23.4889H33.9176V24.7762Z" fill="#CADFFD"/>
        <path d="M163.422 12.933H165.224V14.9927H166.769V12.933H168.571V11.6457H166.769V9.58596H165.224V11.6457H163.422V12.933Z" fill="#CADFFD"/>
        <path d="M151.578 12.933H153.381V14.9927H154.925V12.933H156.728V11.6457H154.925V9.58596H153.381V11.6457H151.578V12.933Z" fill="#CADFFD"/>
        <path d="M139.735 12.933H141.795V14.9927H143.082V12.933H145.142V11.6457H143.082V9.58596H141.795V11.6457H139.735V12.933Z" fill="#CADFFD"/>
        <path d="M127.892 12.933H129.951V14.9927H131.239V12.933H133.298V11.6457H131.239V9.58596H129.951V11.6457H127.892V12.933Z" fill="#CADFFD"/>
        <path d="M116.306 12.933H118.108V14.9927H119.653V12.933H121.455V11.6457H119.653V9.58596H118.108V11.6457H116.306V12.933Z" fill="#CADFFD"/>
        <path d="M104.462 12.933H106.522V14.9927H107.809V12.933H109.869V11.6457H107.809V9.58596H106.522V11.6457H104.462V12.933Z" fill="#CADFFD"/>
        <path d="M92.6192 12.933H94.6789V14.9927H95.9662V12.933H98.0259V11.6457H95.9662V9.58596H94.6789V11.6457H92.6192V12.933Z" fill="#CADFFD"/>
        <path d="M80.7759 12.933H82.8356V14.9927H84.1229V12.933H86.1826V11.6457H84.1229V9.58596H82.8356V11.6457H80.7759V12.933Z" fill="#CADFFD"/>
        <path d="M69.1901 12.933H70.9923V14.9927H72.5371V12.933H74.3394V11.6457H72.5371V9.58596H70.9923V11.6457H69.1901V12.933Z" fill="#CADFFD"/>
        <path d="M57.3472 12.933H59.4069V14.9927H60.6942V12.933H62.7539V11.6457H60.6942V9.58596H59.4069V11.6457H57.3472V12.933Z" fill="#CADFFD"/>
        <path d="M45.5034 12.933H47.5632V14.9927H48.8505V12.933H50.9102V11.6457H48.8505V9.58596H47.5632V11.6457H45.5034V12.933Z" fill="#CADFFD"/>
        <path d="M175.007 1.34716H177.067V3.14941H178.354V1.34716H180.414V-0.197609H178.354V-1.99984H177.067V-0.197609H175.007V1.34716Z" fill="#CADFFD"/>
        <path d="M163.422 1.34716H165.224V3.14941H166.769V1.34716H168.571V-0.197609H166.769V-1.99984H165.224V-0.197609H163.422V1.34716Z" fill="#CADFFD"/>
        <path d="M151.578 1.34716H153.381V3.14941H154.925V1.34716H156.728V-0.197609H154.925V-1.99984H153.381V-0.197609H151.578V1.34716Z" fill="#CADFFD"/>
        <path d="M139.735 1.34716H141.795V3.14941H143.082V1.34716H145.142V-0.197609H143.082V-1.99984H141.795V-0.197609H139.735V1.34716Z" fill="#CADFFD"/>
        <path d="M127.892 1.34716H129.951V3.14941H131.239V1.34716H133.298V-0.197609H131.239V-1.99984H129.951V-0.197609H127.892V1.34716Z" fill="#CADFFD"/>
        <path d="M116.306 1.34716H118.108V3.14941H119.653V1.34716H121.455V-0.197609H119.653V-1.99984H118.108V-0.197609H116.306V1.34716Z" fill="#CADFFD"/>
        <path d="M104.462 1.34716H106.522V3.14941H107.809V1.34716H109.869V-0.197609H107.809V-1.99984H106.522V-0.197609H104.462V1.34716Z" fill="#CADFFD"/>
        <path d="M92.6192 1.34716H94.6789V3.14941H95.9662V1.34716H98.0259V-0.197609H95.9662V-1.99984H94.6789V-0.197609H92.6192V1.34716Z" fill="#CADFFD"/>
        <path d="M80.7759 1.34716H82.8356V3.14941H84.1229V1.34716H86.1826V-0.197609H84.1229V-1.99984H82.8356V-0.197609H80.7759V1.34716Z" fill="#CADFFD"/>
        <path d="M69.1901 1.34716H70.9923V3.14941H72.5371V1.34716H74.3394V-0.197609H72.5371V-1.99984H70.9923V-0.197609H69.1901V1.34716Z" fill="#CADFFD"/>
        <path d="M57.3467 1.34716H59.4064V3.14941H60.6937V1.34716H62.7534V-0.197609H60.6937V-1.99984H59.4064V-0.197609H57.3467V1.34716Z" fill="#CADFFD"/>
    </g>
</svg>
